<svg width="20" height="20" viewBox="0 0 20 20" fill="none" xmlns="http://www.w3.org/2000/svg">
<path d="M2.0835 10.0002C2.0835 6.26821 2.0835 4.40224 3.24286 3.24286C4.40224 2.0835 6.26821 2.0835 10.0002 2.0835C13.7321 2.0835 15.5981 2.0835 16.7575 3.24286C17.9168 4.40224 17.9168 6.26821 17.9168 10.0002C17.9168 13.7321 17.9168 15.5981 16.7575 16.7575C15.5981 17.9168 13.7321 17.9168 10.0002 17.9168C6.26821 17.9168 4.40224 17.9168 3.24286 16.7575C2.0835 15.5981 2.0835 13.7321 2.0835 10.0002Z" stroke="#99A0AE" stroke-width="1.25"/>
<path d="M10 6.6665V13.3332" stroke="#99A0AE" stroke-width="1.25" stroke-linecap="round" stroke-linejoin="round"/>
<path d="M7.5 8.3335V11.6668" stroke="#99A0AE" stroke-width="1.25" stroke-linecap="round" stroke-linejoin="round"/>
<path d="M5 9.1665V10.8332" stroke="#99A0AE" stroke-width="1.25" stroke-linecap="round" stroke-linejoin="round"/>
<path d="M12.5 8.3335V11.6668" stroke="#99A0AE" stroke-width="1.25" stroke-linecap="round" stroke-linejoin="round"/>
<path d="M15 9.1665V10.8332" stroke="#99A0AE" stroke-width="1.25" stroke-linecap="round" stroke-linejoin="round"/>
</svg>
